# xmcd
#
# Track frame offsets: 
#        150
#        12920
#        37852
#        55987
#        80178
#        94419
#        123859
#        153296
#        174096
#        191004
#        217742
#        234644
#        250503
#        282089
#        323997
#
# Disc length: 4714 seconds
#
# Revision: 1
# Processed by: cddbd v1.5.2PL0 Copyright (c) Steve Scherf et al.
# Submitted via: ExactAudioCopyFreeDBPlugin 1.0
#
DISCID=bd12680f
DTITLE=Various Artist - Portland's Genuine Blues
DYEAR=2003
DGENRE=Blues
TTITLE0=Albert Reda - Dyin' Blues
TTITLE1=Ellen Whyte And Reflex Blue - Take It Back
TTITLE2=David Jacobs-Strain - River Was Green
TTITLE3=Kinzel And Hyde - Can't Lose What You Never Had
TTITLE4=The Norman Sylvester Band - Too Happy To Sing The Blues
TTITLE5=Bill Rhoades And The Party Kings - You Can't Live Long
TTITLE6=The Canonballs - Mother Don't Think I'm An Angel
TTITLE7=Sheila Wilcoxson - Grinnin' In Your Face
TTITLE8=The Paul deLay Band - Paul Train
TTITLE9=Bobby Sims - Long Grey Mare
TTITLE10=Terry Robb - Judge Boushay Blues
TTITLE11=Robbie Laws - Swamp Thing
TTITLE12=Drawback Slim - Answering Machine Blues
TTITLE13=Linda Hornbuckle with No Delay - Amazing Grace
TTITLE14=Additional Information - Data Track
EXTD=YEAR: 2003
EXTT0=
EXTT1=
EXTT2=
EXTT3=
EXTT4=
EXTT5=
EXTT6=
EXTT7=
EXTT8=
EXTT9=
EXTT10=
EXTT11=
EXTT12=
EXTT13=
EXTT14=
PLAYORDER=
